<?xml version="1.0" encoding="UTF-8"?>
<svg width="512px" height="512px" viewBox="0 0 512 512" version="1.1" xmlns="http://www.w3.org/2000/svg" xmlns:xlink="http://www.w3.org/1999/xlink">
    <!-- Generator: Sketch 3.6.1 (26313) - http://www.bohemiancoding.com/sketch -->
    <title>sentimentalandroid@2x</title>
    <desc>Created with Sketch.</desc>
    <defs></defs>
    <g id="Page-1" stroke="none" stroke-width="1" fill="none" fill-rule="evenodd">
        <g id="sentimentalandroid">
            <g id="Artboard@1.5x" transform="translate(12.333333, 75.333333)">
                <g id="Page-1">
                    <g id="Artboard">
                        <g id="theater">
                            <path d="M191.902859,267.219384 L191.902859,235.253854 L102.845275,260.369835 C102.845275,260.369835 109.314899,222.315172 155.747374,208.996765 C169.828832,205.191782 182.007572,205.191782 191.902859,207.094274 L191.902859,75.4252391 L236.431651,75.4252391 C231.484008,60.5840658 226.917101,48.7874587 223.110701,40.7958347 C216.641077,27.4764613 209.78975,36.2294684 194.94682,49.1681502 C184.290059,57.9201911 157.268388,77.3286969 116.545996,87.9832293 C75.8226376,99.0194196 43.0928158,95.9748533 29.3911287,93.6916702 C9.98129109,90.2664124 -0.294732673,86.0807378 0.847477228,100.921911 C1.6089505,113.860593 4.65291089,134.029516 11.8849743,161.047988 C27.1086416,218.890881 77.7263208,330.390027 173.635232,304.512663 C198.754186,297.663114 216.642044,284.34374 228.820784,267.219384 L191.902859,267.219384 L191.902859,267.219384 L191.902859,267.219384 Z M48.421196,161.808404 L116.545996,143.922665 C116.545996,143.922665 114.643279,170.179754 89.1435881,177.030269 C63.6448634,183.499127 48.421196,161.808404 48.421196,161.808404 L48.421196,161.808404 L48.421196,161.808404 Z" id="Shape" fill="#E2574C"></path>
                            <path d="M449.561061,78.0891138 C431.292467,81.13368 387.905885,85.3193547 334.243279,70.8588729 C280.580673,56.3983911 244.804958,31.2824107 230.723501,19.4858036 C210.55219,2.74213867 201.799113,-8.67474311 193.425806,8.83030489 C185.813972,24.4328613 175.918685,49.5488418 166.404135,84.9386631 C145.852087,161.427713 130.62842,322.778128 257.364436,356.646149 C384.481188,390.514171 451.844515,243.244512 472.396562,166.755462 C481.911113,131.364675 486.097283,104.726894 487.239493,87.6025378 C488.761473,67.8143067 475.441489,73.5227476 449.561061,78.0891138 L449.561061,78.0891138 L449.561061,78.0891138 Z M194.56705,141.639482 C194.56705,141.639482 214.73836,110.054644 248.991129,119.948759 C283.243897,129.842875 285.908087,167.516845 285.908087,167.516845 L194.56705,141.639482 L194.56705,141.639482 L194.56705,141.639482 Z M277.535747,280.537791 C217.783287,263.032743 208.649473,215.464657 208.649473,215.464657 L368.876784,259.988177 C368.876784,260.368868 336.526733,297.662148 277.535747,280.537791 L277.535747,280.537791 L277.535747,280.537791 Z M335.384523,183.499127 C335.384523,183.499127 354.79436,152.29498 387.525149,161.808404 C420.255937,171.70252 422.920127,209.376491 422.920127,209.376491 L335.384523,183.499127 L335.384523,183.499127 L335.384523,183.499127 Z" id="Shape" fill="#EFC75E"></path>
                            <path d="M282.102653,281.679866 L277.535747,280.537791 C217.783287,263.032743 208.649473,215.464657 208.649473,215.464657 L293.14015,239.057871 L336.526733,71.2385982 C335.765259,70.8579067 335.004752,70.8579067 334.243279,70.8579067 C280.580673,56.3974249 244.804958,31.2814444 230.723501,19.4848373 C210.55219,2.74117244 201.799113,-8.67570933 193.425806,8.82933867 C185.813972,24.4318951 175.918685,49.5478756 166.404135,84.9376969 C146.61356,158.38218 131.77063,309.83848 243.282978,352.078817 L262.312079,357.787258 L282.102653,281.679866 L282.102653,281.679866 L282.102653,281.679866 L282.102653,281.679866 Z M194.56705,141.639482 C194.56705,141.639482 214.73836,110.054644 248.991129,119.948759 C283.243897,129.842875 285.908087,167.516845 285.908087,167.516845 L194.56705,141.639482 L194.56705,141.639482 L194.56705,141.639482 Z" id="Shape" fill="#AF8720"></path>
                            <path d="M160.314281,244.386587 L102.845275,260.74956 C102.845275,260.74956 108.935129,224.978081 151.179501,210.898291 L118.448713,87.9832293 C117.68724,88.3639209 116.926733,88.3639209 115.784523,88.7446124 C75.0611644,99.7808027 42.3313426,96.7362364 28.6296554,94.4530533 C9.21981782,91.0277956 -1.05620594,86.8421209 0.0860039604,101.683294 C0.847477228,114.621976 3.89143762,134.790899 11.123501,161.809371 C27.1086416,218.890881 77.7263208,330.390027 173.634265,304.512663 L175.917719,303.75128 C175.918685,303.75128 160.314281,244.386587 160.314281,244.386587 L160.314281,244.386587 L160.314281,244.386587 Z M48.421196,161.808404 L116.545996,143.922665 C116.545996,143.922665 114.643279,170.179754 89.1435881,177.030269 C63.6448634,183.499127 48.421196,161.808404 48.421196,161.808404 L48.421196,161.808404 L48.421196,161.808404 Z" id="Shape" fill="#AD3C34"></path>
                        </g>
                    </g>
                </g>
            </g>
        </g>
    </g>
</svg>