<?xml version="1.0" encoding="UTF-8"?>
<svg width="1024px" height="1024px" viewBox="0 0 1024 1024" version="1.1" xmlns="http://www.w3.org/2000/svg" xmlns:xlink="http://www.w3.org/1999/xlink">
    <!-- Generator: Sketch 3.6.1 (26313) - http://www.bohemiancoding.com/sketch -->
    <title>sentimentalitunes@2x</title>
    <desc>Created with Sketch.</desc>
    <defs></defs>
    <g id="Page-1" stroke="none" stroke-width="1" fill="none" fill-rule="evenodd">
        <g id="sentimentalitunes">
            <g id="Artboard@1.5x" transform="translate(24.666667, 150.666667)">
                <g id="Page-1">
                    <g id="Artboard">
                        <g id="theater">
                            <path d="M383.805719,534.438768 L383.805719,470.507708 L205.69055,520.739669 C205.69055,520.739669 218.629798,444.630345 311.494749,417.993531 C339.657663,410.383564 364.015145,410.383564 383.805719,414.188548 L383.805719,150.850478 L472.863303,150.850478 C462.968016,121.168132 453.834202,97.5749173 446.221402,81.5916693 C433.282154,54.9529227 419.579501,72.4589369 389.89364,98.3363004 C368.580119,115.840382 314.536776,154.657394 233.091992,175.966459 C151.645275,198.038839 86.1856317,191.949707 58.7822574,187.38334 C19.9625822,180.532825 -0.589465347,172.161476 1.69495446,201.843822 C3.21790099,227.721186 9.30582178,268.059031 23.7699485,322.095975 C54.2172832,437.781762 155.452642,660.780053 347.270463,609.025326 C397.508372,595.326228 433.284087,568.687481 457.641568,534.438768 L383.805719,534.438768 L383.805719,534.438768 L383.805719,534.438768 Z M96.8423921,323.616809 L233.091992,287.84533 C233.091992,287.84533 229.286558,340.359508 178.287176,354.060539 C127.289727,366.998254 96.8423921,323.616809 96.8423921,323.616809 L96.8423921,323.616809 L96.8423921,323.616809 Z" id="Shape" fill="#E2574C"></path>
                            <path d="M899.122123,156.178228 C862.584935,162.26736 775.81177,170.638709 668.486558,141.717746 C561.161347,112.796782 489.609917,62.5648213 461.447002,38.9716071 C421.10438,5.48427733 403.598226,-17.3494862 386.851612,17.6606098 C371.627945,48.8657227 351.83737,99.0976836 332.808269,169.877326 C291.704174,322.855426 261.25684,645.556256 514.728871,713.292299 C768.962376,781.028341 903.68903,486.489024 944.793125,333.510924 C963.822226,262.729349 972.194566,209.453788 974.478986,175.205076 C977.522947,135.628613 950.882978,147.045495 899.122123,156.178228 L899.122123,156.178228 L899.122123,156.178228 Z M389.134099,283.278964 C389.134099,283.278964 429.476721,220.109287 497.982257,239.897518 C566.487794,259.685749 571.816174,335.033691 571.816174,335.033691 L389.134099,283.278964 L389.134099,283.278964 L389.134099,283.278964 Z M555.071493,561.075582 C435.566574,526.065486 417.298947,430.929314 417.298947,430.929314 L737.753568,519.976354 C737.753568,520.737737 673.053465,595.324295 555.071493,561.075582 L555.071493,561.075582 L555.071493,561.075582 Z M670.769046,366.998254 C670.769046,366.998254 709.588721,304.589961 775.050297,323.616809 C840.511873,343.40504 845.840253,418.752981 845.840253,418.752981 L670.769046,366.998254 L670.769046,366.998254 L670.769046,366.998254 Z" id="Shape" fill="#EFC75E"></path>
                            <path d="M564.205307,563.359732 L555.071493,561.075582 C435.566574,526.065486 417.298947,430.929314 417.298947,430.929314 L586.280301,478.115742 L673.053465,142.477196 C671.530519,141.715813 670.009505,141.715813 668.486558,141.715813 C561.161347,112.79485 489.609917,62.5628889 461.447002,38.9696747 C421.10438,5.48234489 403.598226,-17.3514187 386.851612,17.6586773 C371.627945,48.8637902 351.83737,99.0957511 332.808269,169.875394 C293.227121,316.764361 263.541259,619.67696 486.565956,704.157634 L524.624158,715.574516 L564.205307,563.359732 L564.205307,563.359732 L564.205307,563.359732 L564.205307,563.359732 Z M389.134099,283.278964 C389.134099,283.278964 429.476721,220.109287 497.982257,239.897518 C566.487794,259.685749 571.816174,335.033691 571.816174,335.033691 L389.134099,283.278964 L389.134099,283.278964 L389.134099,283.278964 Z" id="Shape" fill="#AF8720"></path>
                            <path d="M320.628562,488.773173 L205.69055,521.49912 C205.69055,521.49912 217.870257,449.956162 302.359002,421.796581 L236.897426,175.966459 C235.374479,176.727842 233.853465,176.727842 231.569046,177.489225 C150.122329,199.561605 84.6626851,193.472473 57.2593109,188.906107 C18.4396356,182.055591 -2.11241188,173.684242 0.172007921,203.366588 C1.69495446,229.243952 7.78287525,269.581797 22.247002,323.618741 C54.2172832,437.781762 155.452642,660.780053 347.268531,609.025326 L351.835438,607.50256 C351.83737,607.50256 320.628562,488.773173 320.628562,488.773173 L320.628562,488.773173 L320.628562,488.773173 Z M96.8423921,323.616809 L233.091992,287.84533 C233.091992,287.84533 229.286558,340.359508 178.287176,354.060539 C127.289727,366.998254 96.8423921,323.616809 96.8423921,323.616809 L96.8423921,323.616809 L96.8423921,323.616809 Z" id="Shape" fill="#AD3C34"></path>
                        </g>
                    </g>
                </g>
            </g>
        </g>
    </g>
</svg>