<?xml version="1.0" encoding="UTF-8"?>
<svg width="512px" height="707px" viewBox="0 0 512 707" version="1.1" xmlns="http://www.w3.org/2000/svg" xmlns:xlink="http://www.w3.org/1999/xlink">
    <!-- Generator: Sketch 3.6.1 (26313) - http://www.bohemiancoding.com/sketch -->
    <title>explainer@1.5x</title>
    <desc>Created with Sketch.</desc>
    <defs></defs>
    <g id="Page-1" stroke="none" stroke-width="1" fill="none" fill-rule="evenodd">
        <g id="explainer">
            <g id="text-lines">
                <g id="Layer_1">
                    <path d="M486.845937,705.127006 L25.1540645,705.127006 C11.7333333,705.127006 0.854709678,694.241609 0.854709678,680.81252 L0.854709678,48.6289739 C0.854709678,35.1998849 11.7333333,24.3144869 25.1540645,24.3144869 L486.845937,24.3144869 C500.266668,24.3144869 511.14529,35.1998849 511.14529,48.6289739 L511.14529,680.811142 C511.14529,694.240231 500.26529,705.127006 486.845937,705.127006 L486.845937,705.127006 L486.845937,705.127006 Z" id="Shape" fill="#EFF2FA"></path>
                    <rect id="Rectangle-path" fill="#D7DEED" x="0.854709678" y="85.1013928" width="510.291958" height="24.3144869"></rect>
                    <path d="M511.14529,85.1013928 L0.854709678,85.1013928 L0.854709678,48.6289739 C0.854709678,35.1998849 11.7333333,24.3144869 25.1540645,24.3144869 L486.845937,24.3144869 C500.266668,24.3144869 511.14529,35.1998849 511.14529,48.6289739 L511.14529,85.1013928 L511.14529,85.1013928 L511.14529,85.1013928 Z" id="Shape" fill="#8F96AC"></path>
                    <g id="Group" transform="translate(48.172042, 0.000000)">
                        <path d="M207.827957,48.6289739 L207.827957,48.6289739 C201.11828,48.6289739 195.677591,43.1848977 195.677591,36.4710417 L195.677591,12.1579321 C195.677591,5.44407629 201.11828,0 207.827957,0 L207.827957,0 C214.537634,0 219.978323,5.44407629 219.978323,12.1579321 L219.978323,36.4724189 C219.978323,43.1862748 214.537634,48.6289739 207.827957,48.6289739 L207.827957,48.6289739 L207.827957,48.6289739 Z" id="Shape" fill="#C7CFE2"></path>
                        <path d="M256.426668,48.6289739 L256.426668,48.6289739 C249.716989,48.6289739 244.276301,43.1848977 244.276301,36.4710417 L244.276301,12.1579321 C244.276301,5.44407629 249.716989,0 256.426668,0 L256.426668,0 C263.136343,0 268.577032,5.44407629 268.577032,12.1579321 L268.577032,36.4724189 C268.577032,43.1862748 263.136343,48.6289739 256.426668,48.6289739 L256.426668,48.6289739 L256.426668,48.6289739 Z" id="Shape" fill="#C7CFE2"></path>
                        <path d="M110.629161,48.6289739 L110.629161,48.6289739 C103.919484,48.6289739 98.4787958,43.1848977 98.4787958,36.4710417 L98.4787958,12.1579321 C98.4787958,5.44407629 103.919484,0 110.629161,0 L110.629161,0 C117.338839,0 122.779527,5.44407629 122.779527,12.1579321 L122.779527,36.4724189 C122.779527,43.1862748 117.338839,48.6289739 110.629161,48.6289739 L110.629161,48.6289739 L110.629161,48.6289739 Z" id="Shape" fill="#C7CFE2"></path>
                        <path d="M159.229247,48.6289739 L159.229247,48.6289739 C152.51957,48.6289739 147.078882,43.1848977 147.078882,36.4710417 L147.078882,12.1579321 C147.078882,5.44407629 152.51957,0 159.229247,0 L159.229247,0 C165.938925,0 171.379613,5.44407629 171.379613,12.1579321 L171.379613,36.4724189 C171.378237,43.1862748 165.938925,48.6289739 159.229247,48.6289739 L159.229247,48.6289739 L159.229247,48.6289739 Z" id="Shape" fill="#C7CFE2"></path>
                        <path d="M13.4317419,48.6289739 L13.4317419,48.6289739 C6.72206451,48.6289739 1.28137634,43.1848977 1.28137634,36.4710417 L1.28137634,12.1579321 C1.28137634,5.44407629 6.72206451,0 13.4317419,0 L13.4317419,0 C20.1414194,0 25.5821075,5.44407629 25.5821075,12.1579321 L25.5821075,36.4724189 C25.5807312,43.1862748 20.1414194,48.6289739 13.4317419,48.6289739 L13.4317419,48.6289739 L13.4317419,48.6289739 Z" id="Shape" fill="#C7CFE2"></path>
                        <path d="M62.0304517,48.6289739 L62.0304517,48.6289739 C55.3207741,48.6289739 49.880086,43.1848977 49.880086,36.4710417 L49.880086,12.1579321 C49.880086,5.44407629 55.3207741,0 62.0304517,0 L62.0304517,0 C68.740129,0 74.1808172,5.44407629 74.1808172,12.1579321 L74.1808172,36.4724189 C74.1808172,43.1862748 68.740129,48.6289739 62.0304517,48.6289739 L62.0304517,48.6289739 L62.0304517,48.6289739 Z" id="Shape" fill="#C7CFE2"></path>
                        <path d="M305.026752,48.6289739 L305.026752,48.6289739 C298.317076,48.6289739 292.876388,43.1848977 292.876388,36.4710417 L292.876388,12.1579321 C292.876388,5.44407629 298.317076,0 305.026752,0 L305.026752,0 C311.73643,0 317.177119,5.44407629 317.177119,12.1579321 L317.177119,36.4724189 C317.175741,43.1862748 311.73643,48.6289739 305.026752,48.6289739 L305.026752,48.6289739 L305.026752,48.6289739 Z" id="Shape" fill="#C7CFE2"></path>
                        <path d="M353.625462,48.6289739 L353.625462,48.6289739 C346.915784,48.6289739 341.475098,43.1848977 341.475098,36.4710417 L341.475098,12.1579321 C341.475098,5.44407629 346.915784,0 353.625462,0 L353.625462,0 C360.33514,0 365.775828,5.44407629 365.775828,12.1579321 L365.775828,36.4724189 C365.775828,43.1862748 360.33514,48.6289739 353.625462,48.6289739 L353.625462,48.6289739 L353.625462,48.6289739 Z" id="Shape" fill="#C7CFE2"></path>
                        <path d="M402.224172,48.6289739 L402.224172,48.6289739 C395.514493,48.6289739 390.073807,43.1848977 390.073807,36.4710417 L390.073807,12.1579321 C390.073807,5.44407629 395.514493,0 402.224172,0 L402.224172,0 C408.93385,0 414.374538,5.44407629 414.374538,12.1579321 L414.374538,36.4724189 C414.374538,43.1862748 408.93385,48.6289739 402.224172,48.6289739 L402.224172,48.6289739 L402.224172,48.6289739 Z" id="Shape" fill="#C7CFE2"></path>
                        <path d="M37.7310968,194.517272 L13.4317419,194.517272 C6.72206451,194.517272 1.28137634,189.073196 1.28137634,182.35934 L1.28137634,182.35934 C1.28137634,175.645485 6.72206451,170.201408 13.4317419,170.201408 L37.7310968,170.201408 C44.4407741,170.201408 49.8814623,175.645485 49.8814623,182.35934 L49.8814623,182.35934 C49.880086,189.074573 44.4407741,194.517272 37.7310968,194.517272 L37.7310968,194.517272 L37.7310968,194.517272 Z" id="Shape" fill="#C7CFE2"></path>
                        <path d="M37.7310968,243.147623 L13.4317419,243.147623 C6.72206451,243.147623 1.28137634,237.703547 1.28137634,230.989691 L1.28137634,230.989691 C1.28137634,224.275836 6.72206451,218.831759 13.4317419,218.831759 L37.7310968,218.831759 C44.4407741,218.831759 49.8814623,224.275836 49.8814623,230.989691 L49.8814623,230.989691 C49.880086,237.703547 44.4407741,243.147623 37.7310968,243.147623 L37.7310968,243.147623 L37.7310968,243.147623 Z" id="Shape" fill="#C7CFE2"></path>
                        <path d="M37.7310968,291.776597 L13.4317419,291.776597 C6.72206451,291.776597 1.28137634,286.33252 1.28137634,279.618667 L1.28137634,279.618667 C1.28137634,272.90481 6.72206451,267.460733 13.4317419,267.460733 L37.7310968,267.460733 C44.4407741,267.460733 49.8814623,272.90481 49.8814623,279.618667 L49.8814623,279.618667 C49.880086,286.333899 44.4407741,291.776597 37.7310968,291.776597 L37.7310968,291.776597 L37.7310968,291.776597 Z" id="Shape" fill="#C7CFE2"></path>
                        <path d="M37.7310968,340.405571 L13.4317419,340.405571 C6.72206451,340.405571 1.28137634,334.961494 1.28137634,328.247638 L1.28137634,328.247638 C1.28137634,321.533784 6.72206451,316.089707 13.4317419,316.089707 L37.7310968,316.089707 C44.4407741,316.089707 49.8814623,321.533784 49.8814623,328.247638 L49.8814623,328.247638 C49.880086,334.962872 44.4407741,340.405571 37.7310968,340.405571 L37.7310968,340.405571 L37.7310968,340.405571 Z" id="Shape" fill="#ADACAC"></path>
                        <path d="M37.7310968,389.035923 L13.4317419,389.035923 C6.72206451,389.035923 1.28137634,383.591846 1.28137634,376.87799 L1.28137634,376.87799 C1.28137634,370.164133 6.72206451,364.720059 13.4317419,364.720059 L37.7310968,364.720059 C44.4407741,364.720059 49.8814623,370.164133 49.8814623,376.87799 L49.8814623,376.87799 C49.880086,383.591846 44.4407741,389.035923 37.7310968,389.035923 L37.7310968,389.035923 L37.7310968,389.035923 Z" id="Shape" fill="#ADACAC"></path>
                        <path d="M37.7310968,437.664897 L13.4317419,437.664897 C6.72206451,437.664897 1.28137634,432.22082 1.28137634,425.506964 L1.28137634,425.506964 C1.28137634,418.793107 6.72206451,413.349031 13.4317419,413.349031 L37.7310968,413.349031 C44.4407741,413.349031 49.8814623,418.793107 49.8814623,425.506964 L49.8814623,425.506964 C49.880086,432.222196 44.4407741,437.664897 37.7310968,437.664897 L37.7310968,437.664897 L37.7310968,437.664897 Z" id="Shape" fill="#ADACAC"></path>
                        <path d="M37.7310968,486.293871 L13.4317419,486.293871 C6.72206451,486.293871 1.28137634,480.849794 1.28137634,474.135938 L1.28137634,474.135938 C1.28137634,467.422081 6.72206451,461.978005 13.4317419,461.978005 L37.7310968,461.978005 C44.4407741,461.978005 49.8814623,467.422081 49.8814623,474.135938 L49.8814623,474.135938 C49.880086,480.85117 44.4407741,486.293871 37.7310968,486.293871 L37.7310968,486.293871 L37.7310968,486.293871 Z" id="Shape" fill="#C7CFE2"></path>
                        <path d="M37.7310968,534.92422 L13.4317419,534.92422 C6.72206451,534.92422 1.28137634,529.480144 1.28137634,522.76629 L1.28137634,522.76629 C1.28137634,516.052433 6.72206451,510.608357 13.4317419,510.608357 L37.7310968,510.608357 C44.4407741,510.608357 49.8814623,516.052433 49.8814623,522.76629 L49.8814623,522.76629 C49.880086,529.480144 44.4407741,534.92422 37.7310968,534.92422 L37.7310968,534.92422 L37.7310968,534.92422 Z" id="Shape" fill="#C7CFE2"></path>
                        <path d="M37.7310968,583.553194 L13.4317419,583.553194 C6.72206451,583.553194 1.28137634,578.109118 1.28137634,571.395264 L1.28137634,571.395264 C1.28137634,564.681407 6.72206451,559.23733 13.4317419,559.23733 L37.7310968,559.23733 C44.4407741,559.23733 49.8814623,564.681407 49.8814623,571.395264 L49.8814623,571.395264 C49.880086,578.110496 44.4407741,583.553194 37.7310968,583.553194 L37.7310968,583.553194 L37.7310968,583.553194 Z" id="Shape" fill="#C7CFE2"></path>
                        <path d="M37.7310968,632.182168 L13.4317419,632.182168 C6.72206451,632.182168 1.28137634,626.738091 1.28137634,620.024238 L1.28137634,620.024238 C1.28137634,613.310381 6.72206451,607.866304 13.4317419,607.866304 L37.7310968,607.866304 C44.4407741,607.866304 49.8814623,613.310381 49.8814623,620.024238 L49.8814623,620.024238 C49.880086,626.73947 44.4407741,632.182168 37.7310968,632.182168 L37.7310968,632.182168 L37.7310968,632.182168 Z" id="Shape" fill="#C7CFE2"></path>
                    </g>
                    <g id="Group" transform="translate(121.118280, 169.395745)">
                        <path d="M329.277937,25.1215268 L159.181075,25.1215268 C152.471398,25.1215268 147.03071,19.6774505 147.03071,12.9635948 L147.03071,12.9635948 C147.03071,6.24973898 152.471398,0.805662693 159.181075,0.805662693 L329.277937,0.805662693 C335.987612,0.805662693 341.428301,6.24973898 341.428301,12.9635948 L341.428301,12.9635948 C341.428301,19.6788277 335.987612,25.1215268 329.277937,25.1215268 L329.277937,25.1215268 L329.277937,25.1215268 Z" id="Shape" fill="#D7DEED"></path>
                        <path d="M329.277937,122.380852 L219.930151,122.380852 C213.220473,122.380852 207.779785,116.936775 207.779785,110.22292 L207.779785,110.22292 C207.779785,103.509064 213.220473,98.0649875 219.930151,98.0649875 L329.277937,98.0649875 C335.987612,98.0649875 341.428301,103.509064 341.428301,110.22292 L341.428301,110.22292 C341.428301,116.938152 335.987612,122.380852 329.277937,122.380852 L329.277937,122.380852 L329.277937,122.380852 Z" id="Shape" fill="#9B9B9B"></path>
                        <path d="M61.9822797,73.7518777 L13.3835699,73.7518777 C6.67389248,73.7518777 1.2332043,68.3078015 1.2332043,61.5939458 L1.2332043,61.5939458 C1.2332043,54.8800899 6.67389248,49.4360136 13.3835699,49.4360136 L61.9822797,49.4360136 C68.691957,49.4360136 74.1326451,54.8800899 74.1326451,61.5939458 L74.1326451,61.5939458 C74.1326451,68.3078015 68.6933332,73.7518777 61.9822797,73.7518777 L61.9822797,73.7518777 L61.9822797,73.7518777 Z" id="Shape" fill="#D7DEED"></path>
                        <path d="M232.080516,73.7518777 L110.582366,73.7518777 C103.872688,73.7518777 98.432,68.3078015 98.432,61.5939458 L98.432,61.5939458 C98.432,54.8800899 103.872688,49.4360136 110.582366,49.4360136 L232.080516,49.4360136 C238.790194,49.4360136 244.230882,54.8800899 244.230882,61.5939458 L244.230882,61.5939458 C244.229505,68.3078015 238.790194,73.7518777 232.080516,73.7518777 L232.080516,73.7518777 L232.080516,73.7518777 Z" id="Shape" fill="#D7DEED"></path>
                        <path d="M329.277937,73.7518777 L280.679227,73.7518777 C273.969549,73.7518777 268.52886,68.3078015 268.52886,61.5939458 L268.52886,61.5939458 C268.52886,54.8800899 273.969549,49.4360136 280.679227,49.4360136 L329.277937,49.4360136 C335.987612,49.4360136 341.428301,54.8800899 341.428301,61.5939458 L341.428301,61.5939458 C341.428301,68.3078015 335.987612,73.7518777 329.277937,73.7518777 L329.277937,73.7518777 L329.277937,73.7518777 Z" id="Shape" fill="#D7DEED"></path>
                        <path d="M171.331441,122.380852 L13.3835699,122.380852 C6.67389248,122.380852 1.2332043,116.936775 1.2332043,110.22292 L1.2332043,110.22292 C1.2332043,103.509064 6.67389248,98.0649875 13.3835699,98.0649875 L171.331441,98.0649875 C178.041118,98.0649875 183.481806,103.509064 183.481806,110.22292 L183.481806,110.22292 C183.48043,116.938152 178.041118,122.380852 171.331441,122.380852 L171.331441,122.380852 L171.331441,122.380852 Z" id="Shape" fill="#D7DEED"></path>
                        <path d="M110.582366,171.009826 L13.3835699,171.009826 C6.67389248,171.009826 1.2332043,165.565749 1.2332043,158.851893 L1.2332043,158.851893 C1.2332043,152.138038 6.67389248,146.693961 13.3835699,146.693961 L110.582366,146.693961 C117.292043,146.693961 122.732731,152.138038 122.732731,158.851893 L122.732731,158.851893 C122.731355,165.567126 117.292043,171.009826 110.582366,171.009826 L110.582366,171.009826 L110.582366,171.009826 Z" id="Shape" fill="#ADACAC"></path>
                        <path d="M329.277937,171.009826 L159.181075,171.009826 C152.471398,171.009826 147.03071,165.565749 147.03071,158.851893 L147.03071,158.851893 C147.03071,152.138038 152.471398,146.693961 159.181075,146.693961 L329.277937,146.693961 C335.987612,146.693961 341.428301,152.138038 341.428301,158.851893 L341.428301,158.851893 C341.428301,165.567126 335.987612,171.009826 329.277937,171.009826 L329.277937,171.009826 L329.277937,171.009826 Z" id="Shape" fill="#ADACAC"></path>
                        <path d="M329.277937,219.640177 L280.679227,219.640177 C273.969549,219.640177 268.52886,214.1961 268.52886,207.482244 L268.52886,207.482244 C268.52886,200.768389 273.969549,195.324312 280.679227,195.324312 L329.277937,195.324312 C335.987612,195.324312 341.428301,200.768389 341.428301,207.482244 L341.428301,207.482244 C341.428301,214.1961 335.987612,219.640177 329.277937,219.640177 L329.277937,219.640177 L329.277937,219.640177 Z" id="Shape" fill="#ADACAC"></path>
                        <path d="M232.080516,219.640177 L13.3835699,219.640177 C6.67389248,219.640177 1.2332043,214.1961 1.2332043,207.482244 L1.2332043,207.482244 C1.2332043,200.768389 6.67389248,195.324312 13.3835699,195.324312 L232.080516,195.324312 C238.790194,195.324312 244.230882,200.768389 244.230882,207.482244 L244.230882,207.482244 C244.229505,214.1961 238.790194,219.640177 232.080516,219.640177 L232.080516,219.640177 L232.080516,219.640177 Z" id="Shape" fill="#ADACAC"></path>
                        <path d="M110.582366,25.1215268 L13.3835699,25.1215268 C6.67389248,25.1215268 1.2332043,19.6774505 1.2332043,12.9635948 L1.2332043,12.9635948 C1.2332043,6.24973898 6.67389248,0.805662693 13.3835699,0.805662693 L110.582366,0.805662693 C117.292043,0.805662693 122.732731,6.24973898 122.732731,12.9635948 L122.732731,12.9635948 C122.731355,19.6788277 117.292043,25.1215268 110.582366,25.1215268 L110.582366,25.1215268 L110.582366,25.1215268 Z" id="Shape" fill="#D7DEED"></path>
                        <path d="M329.277937,268.269149 L159.181075,268.269149 C152.471398,268.269149 147.03071,262.825075 147.03071,256.111218 L147.03071,256.111218 C147.03071,249.397363 152.471398,243.953286 159.181075,243.953286 L329.277937,243.953286 C335.987612,243.953286 341.428301,249.397363 341.428301,256.111218 L341.428301,256.111218 C341.428301,262.826451 335.987612,268.269149 329.277937,268.269149 L329.277937,268.269149 L329.277937,268.269149 Z" id="Shape" fill="#D7DEED"></path>
                        <path d="M329.277937,365.528475 L219.930151,365.528475 C213.220473,365.528475 207.779785,360.084399 207.779785,353.370542 L207.779785,353.370542 C207.779785,346.656688 213.220473,341.212612 219.930151,341.212612 L329.277937,341.212612 C335.987612,341.212612 341.428301,346.656688 341.428301,353.370542 L341.428301,353.370542 C341.428301,360.084399 335.987612,365.528475 329.277937,365.528475 L329.277937,365.528475 L329.277937,365.528475 Z" id="Shape" fill="#D7DEED"></path>
                        <path d="M61.9822797,316.898123 L13.3835699,316.898123 C6.67389248,316.898123 1.2332043,311.454049 1.2332043,304.740193 L1.2332043,304.740193 C1.2332043,298.026336 6.67389248,292.582259 13.3835699,292.582259 L61.9822797,292.582259 C68.691957,292.582259 74.1326451,298.026336 74.1326451,304.740193 L74.1326451,304.740193 C74.1326451,311.455425 68.6933332,316.898123 61.9822797,316.898123 L61.9822797,316.898123 L61.9822797,316.898123 Z" id="Shape" fill="#D7DEED"></path>
                        <path d="M232.080516,316.898123 L110.582366,316.898123 C103.872688,316.898123 98.432,311.454049 98.432,304.740193 L98.432,304.740193 C98.432,298.026336 103.872688,292.582259 110.582366,292.582259 L232.080516,292.582259 C238.790194,292.582259 244.230882,298.026336 244.230882,304.740193 L244.230882,304.740193 C244.229505,311.455425 238.790194,316.898123 232.080516,316.898123 L232.080516,316.898123 L232.080516,316.898123 Z" id="Shape" fill="#D7DEED"></path>
                        <path d="M329.277937,316.898123 L280.679227,316.898123 C273.969549,316.898123 268.52886,311.454049 268.52886,304.740193 L268.52886,304.740193 C268.52886,298.026336 273.969549,292.582259 280.679227,292.582259 L329.277937,292.582259 C335.987612,292.582259 341.428301,298.026336 341.428301,304.740193 L341.428301,304.740193 C341.428301,311.455425 335.987612,316.898123 329.277937,316.898123 L329.277937,316.898123 L329.277937,316.898123 Z" id="Shape" fill="#D7DEED"></path>
                        <path d="M171.331441,365.528475 L13.3835699,365.528475 C6.67389248,365.528475 1.2332043,360.084399 1.2332043,353.370542 L1.2332043,353.370542 C1.2332043,346.656688 6.67389248,341.212612 13.3835699,341.212612 L171.331441,341.212612 C178.041118,341.212612 183.481806,346.656688 183.481806,353.370542 L183.481806,353.370542 C183.48043,360.084399 178.041118,365.528475 171.331441,365.528475 L171.331441,365.528475 L171.331441,365.528475 Z" id="Shape" fill="#D7DEED"></path>
                        <path d="M110.582366,414.157449 L13.3835699,414.157449 C6.67389248,414.157449 1.2332043,408.713372 1.2332043,401.999516 L1.2332043,401.999516 C1.2332043,395.285662 6.67389248,389.841585 13.3835699,389.841585 L110.582366,389.841585 C117.292043,389.841585 122.732731,395.285662 122.732731,401.999516 L122.732731,401.999516 C122.731355,408.714751 117.292043,414.157449 110.582366,414.157449 L110.582366,414.157449 L110.582366,414.157449 Z" id="Shape" fill="#D7DEED"></path>
                        <path d="M329.277937,414.157449 L159.181075,414.157449 C152.471398,414.157449 147.03071,408.713372 147.03071,401.999516 L147.03071,401.999516 C147.03071,395.285662 152.471398,389.841585 159.181075,389.841585 L329.277937,389.841585 C335.987612,389.841585 341.428301,395.285662 341.428301,401.999516 L341.428301,401.999516 C341.428301,408.714751 335.987612,414.157449 329.277937,414.157449 L329.277937,414.157449 L329.277937,414.157449 Z" id="Shape" fill="#D7DEED"></path>
                        <path d="M329.277937,462.786423 L280.679227,462.786423 C273.969549,462.786423 268.52886,457.342346 268.52886,450.62849 L268.52886,450.62849 C268.52886,443.914636 273.969549,438.470559 280.679227,438.470559 L329.277937,438.470559 C335.987612,438.470559 341.428301,443.914636 341.428301,450.62849 L341.428301,450.62849 C341.428301,457.343725 335.987612,462.786423 329.277937,462.786423 L329.277937,462.786423 L329.277937,462.786423 Z" id="Shape" fill="#D7DEED"></path>
                        <path d="M232.080516,462.786423 L13.3835699,462.786423 C6.67389248,462.786423 1.2332043,457.342346 1.2332043,450.62849 L1.2332043,450.62849 C1.2332043,443.914636 6.67389248,438.470559 13.3835699,438.470559 L232.080516,438.470559 C238.790194,438.470559 244.230882,443.914636 244.230882,450.62849 L244.230882,450.62849 C244.229505,457.343725 238.790194,462.786423 232.080516,462.786423 L232.080516,462.786423 L232.080516,462.786423 Z" id="Shape" fill="#D7DEED"></path>
                        <path d="M110.582366,268.269149 L13.3835699,268.269149 C6.67389248,268.269149 1.2332043,262.825075 1.2332043,256.111218 L1.2332043,256.111218 C1.2332043,249.397363 6.67389248,243.953286 13.3835699,243.953286 L110.582366,243.953286 C117.292043,243.953286 122.732731,249.397363 122.732731,256.111218 L122.732731,256.111218 C122.731355,262.826451 117.292043,268.269149 110.582366,268.269149 L110.582366,268.269149 L110.582366,268.269149 Z" id="Shape" fill="#ADACAC"></path>
                        <path d="M157.44,288.781184 L134.4,245.234083" id="Line" stroke="#979797" stroke-width="2.56" fill="#ADACAC"></path>
                        <path d="M134.4,245.234083 L140.548668,273.279884 L154.123651,266.088654 L134.4,245.234083 L134.4,245.234083 Z" id="Line-decoration-1" stroke="#979797" stroke-width="2.56" fill="#ADACAC"></path>
                    </g>
                </g>
            </g>
        </g>
    </g>
</svg>